<svg fill="none" height="34" viewBox="0 0 34 34" width="34" xmlns="http://www.w3.org/2000/svg" xmlns:xlink="http://www.w3.org/1999/xlink"><linearGradient id="a" gradientUnits="userSpaceOnUse" x1="17" x2="38.4705" y1=".000245" y2="33.0755"><stop offset="0" stop-color="#8960ff"/><stop offset=".807292" stop-color="#0e1629"/></linearGradient><path d="m21.5334.00050193h-9.0666c-3.33197 0-6.46002 1.29192807-8.81735 3.64944807-2.35745 2.3572-3.64945 5.48526-3.64945 8.81735 0 6.4936 4.98665 11.8436 11.3333 12.4213v7.9786c0 .51.34.9519.8272 1.0881.1022.0339.2041.0452.3061.0452.3853 0 .7595-.2039.9747-.5552l5.1114-8.5117h2.9805c3.332 0 6.46-1.2919 8.8173-3.6494 2.3575-2.3572 3.6495-5.4853 3.6495-8.8173 0-6.87966-5.5872-12.46665586-12.4666-12.46665586zm7.208 19.67459807c-1.9267 1.9267-4.4881 2.9919-7.208 2.9919h-3.6267c-.3966 0-.7705.2039-.9747.5553l-3.3319 5.5533v-4.9752c0-.6234-.51-1.1334-1.1333-1.1334-5.62142 0-10.20001-4.5785-10.20001-10.1999 0-2.72001 1.06526-5.2814 2.99193-7.208 1.92666-1.92659 4.48805-2.99193 7.20798-2.99193h9.0666c5.6214 0 10.2 4.57859 10.2 10.19993 0 2.72-1.0653 5.2814-2.9919 7.208zm-4.9414-10.60796c0 .62333-.51 1.13336-1.1333 1.13336h-11.3333c-.6234 0-1.1334-.51003-1.1334-1.13336s.51-1.13333 1.1334-1.13333h11.3333c.6233 0 1.1333.51 1.1333 1.13333zm0 6.79996c0 .6234-.51 1.1334-1.1333 1.1334h-11.3333c-.6234 0-1.1334-.51-1.1334-1.1334 0-.6233.51-1.1333 1.1334-1.1333h11.3333c.6233 0 1.1333.51 1.1333 1.1333z" fill="url(#a)"/></svg>