<svg fill="none" height="34" viewBox="0 0 34 34" width="34" xmlns="http://www.w3.org/2000/svg" xmlns:xlink="http://www.w3.org/1999/xlink"><linearGradient id="a" gradientUnits="userSpaceOnUse" x1="17" x2="38.4702" y1=".000001" y2="33.0751"><stop offset="0" stop-color="#8960ff"/><stop offset=".807292" stop-color="#0e1629"/></linearGradient><path d="m32.8667 5.66667h-3.4v-4.53334c0-.62333-.51-1.13333-1.1334-1.13333-.6233 0-1.1333.51-1.1333 1.13333v4.53334h-3.4c-.6233 0-1.1333.51-1.1333 1.13333v4.5333c0 .6234.51 1.1334 1.1333 1.1334h3.4v20.4c0 .6233.51 1.1333 1.1333 1.1333.6234 0 1.1334-.51 1.1334-1.1333v-20.4h3.4c.6233 0 1.1333-.51 1.1333-1.1334v-4.5333c0-.62333-.51-1.13333-1.1333-1.13333zm-1.1334 4.53333h-6.8v-2.26667h6.8zm-10.2 12.4667h-3.4v-21.53337c0-.62333-.51-1.13333-1.1333-1.13333s-1.1333.51-1.1333 1.13333v21.53337h-3.4c-.6234 0-1.1334.51-1.1334 1.1333v4.5333c0 .6234.51 1.1334 1.1334 1.1334h3.4v3.4c0 .6233.51 1.1333 1.1333 1.1333s1.1333-.51 1.1333-1.1333v-3.4h3.4c.6234 0 1.1334-.51 1.1334-1.1334v-4.5333c0-.6233-.51-1.1333-1.1334-1.1333zm-1.1333 4.5333h-6.8v-2.2667h6.8zm-9.0667-14.7333c0-.6234-.51-1.1334-1.1333-1.1334h-3.4v-10.19997c0-.62333-.51-1.13333-1.13333-1.13333-.62334 0-1.13334.51-1.13334 1.13333v10.19997h-3.4c-.62333 0-1.13333.51-1.13333 1.1334v4.5333c0 .6233.51 1.1333 1.13333 1.1333h3.4v14.7334c0 .6233.51 1.1333 1.13334 1.1333.62333 0 1.13333-.51 1.13333-1.1333v-14.7334h3.4c.6233 0 1.1333-.51 1.1333-1.1333zm-2.26663 3.4h-6.8v-2.2667h6.8z" fill="url(#a)"/></svg>