<svg fill="none" height="34" viewBox="0 0 34 34" width="34" xmlns="http://www.w3.org/2000/svg" xmlns:xlink="http://www.w3.org/1999/xlink"><linearGradient id="a" gradientUnits="userSpaceOnUse" x1="17" x2="38.4702" y1="-.000121" y2="33.075"><stop offset="0" stop-color="#8960ff"/><stop offset=".807292" stop-color="#0e1629"/></linearGradient><path d="m17-.00012207c-9.37299 0-17 7.62701207-17 17.00002207 0 9.373 7.62701 17 17 17 9.373 0 17-7.627 17-17 0-9.37301-7.627-17.00002207-17-17.00002207zm0 31.73332207c-8.12632 0-14.73333-6.607-14.73333-14.7333 0-8.12635 6.60701-14.73336 14.73333-14.73336 8.1263 0 14.7333 6.60701 14.7333 14.73336 0 8.1263-6.607 14.7333-14.7333 14.7333zm1.1333-18.1333v11.3333c0 .6233-.51 1.1333-1.1333 1.1333s-1.1333-.51-1.1333-1.1333v-11.3333c0-.6234.51-1.1334 1.1333-1.1334s1.1333.51 1.1333 1.1334zm-.0227-3.62669c.0114.07939.0227.15859.0227.22669 0 .2947-.1247.5894-.3286.8047-.2153.2039-.51.3286-.8047.3286-.1472 0-.2947-.0339-.4306-.0905-.1361-.0567-.2605-.1361-.3739-.2381-.1019-.1133-.1814-.2267-.238-.3739-.0569-.1361-.0908-.2836-.0908-.4308 0-.29472.1247-.58944.3286-.80473.1133-.10195.238-.18139.3739-.23806.4194-.17.918-.06805 1.2352.23806.0453.05666.102.11333.1361.17.0453.06805.0795.1361.102.20389.0341.06805.0569.13611.068.20415z" fill="url(#a)"/></svg>