<svg fill="none" height="34" viewBox="0 0 34 34" width="34" xmlns="http://www.w3.org/2000/svg" xmlns:xlink="http://www.w3.org/1999/xlink"><linearGradient id="a" gradientUnits="userSpaceOnUse" x1="17" x2="38.4702" y1=".000001" y2="33.0751"><stop offset="0" stop-color="#8960ff"/><stop offset=".807292" stop-color="#0e1629"/></linearGradient><path d="m33.9094 9.76944c-.0566-.13611-.1361-.26057-.2494-.36277l-9.0667-9.06667c-.1019-.101948-.2266-.19277-.3627-.249437-.1359-.0566667-.2834-.090563-.4306-.090563h-22.66667c-.62333 0-1.13333.51-1.13333 1.13333v31.73337c0 .6233.51 1.1333 1.13333 1.1333h31.73337c.6233 0 1.1333-.51 1.1333-1.1333v-22.6667c0-.1472-.0339-.29472-.0906-.43056zm-8.976-5.90473 5.202 5.20193h-5.202zm-22.66663 27.86829v-29.46662h20.40003v7.93332c0 .6233.51 1.1333 1.1333 1.1333h7.9333v20.4zm3.4-22.66662c0-.62333.51-1.13333 1.13333-1.13333h11.3333c.6234 0 1.1334.51 1.1334 1.13333 0 .62334-.51 1.13332-1.1334 1.13332h-11.3333c-.62333 0-1.13333-.50998-1.13333-1.13332zm22.66663 7.93332c0 .6233-.51 1.1333-1.1333 1.1333h-20.4c-.62333 0-1.13333-.51-1.13333-1.1333s.51-1.1333 1.13333-1.1333h20.4c.6233 0 1.1333.51 1.1333 1.1333zm0 7.9333c0 .6234-.51 1.1334-1.1333 1.1334h-20.4c-.62333 0-1.13333-.51-1.13333-1.1334 0-.6233.51-1.1333 1.13333-1.1333h20.4c.6233 0 1.1333.51 1.1333 1.1333z" fill="url(#a)"/></svg>