<svg fill="none" height="34" viewBox="0 0 34 34" width="34" xmlns="http://www.w3.org/2000/svg" xmlns:xlink="http://www.w3.org/1999/xlink"><linearGradient id="a" gradientUnits="userSpaceOnUse" x1="17" x2="38.4702" y1=".000001" y2="33.0751"><stop offset="0" stop-color="#8960ff"/><stop offset=".807292" stop-color="#0e1629"/></linearGradient><path d="m32.6803 26.299-9.9906-9.9887c1.0145-2.4527 1.1795-5.1769.4365-7.7831-.7195-2.53541-2.3471-4.78786-4.5881-6.35614-3.3144-2.311421-7.36-2.806508-11.07505-1.344293-.3657.153459-.63714.483553-.71956.872583-.08267.38931.03528.79024.31831 1.0732l6.5933 6.59199-4.31703 4.31616-6.5814-6.60386c-.28303-.28296-.68397-.40089-1.07341-.31824-.38912.08239-.719282.35378-.860888.71915-1.450636 3.70285-.967315 7.73595 1.332688 11.04995 1.55706 2.2406 3.80961 3.8797 6.34551 4.5992 2.60673.7428 5.34293.5896 7.80823-.4365l9.9906 9.9887c.8846.8844 2.0404 1.3209 3.1965 1.3209 1.1557 0 2.3118-.4364 3.1964-1.3209 1.7456-1.757 1.7456-4.611-.0118-6.3799zm-1.675 4.717c-.8375.8374-2.2058.8374-3.0548 0l-10.5682-10.5661c-.224-.2241-.5308-.342-.8375-.342-.1769 0-.3657.0471-.5308.1298-2.1231 1.0732-4.5647 1.2972-6.87605.6367-2.017-.5777-3.80962-1.8749-5.05994-3.6794-1.47436-2.1227-2.01699-4.5991-1.58045-7.0284l6.01539 6.0143c.45995.4598 1.20321.4598 1.66315 0l5.9801-5.979c.46-.45989.46-1.20301 0-1.66285l-6.0154-6.01423c2.4299-.43643 4.9186.11793 7.0534 1.60386 1.7929 1.25008 3.0904 3.04236 3.6564 5.05896.6487 2.31146.4247 4.75226-.6369 6.86326-.224.4599-.1416 1.0024.2241 1.368l10.5682 10.5662c.8491.8258.8491 2.1935-.0003 3.0308z" fill="url(#a)"/></svg>