<svg fill="none" height="77" viewBox="0 0 77 77" width="77" xmlns="http://www.w3.org/2000/svg" xmlns:xlink="http://www.w3.org/1999/xlink"><linearGradient id="a" gradientUnits="userSpaceOnUse" x1="62" x2="-36.5" y1="56" y2="-12.5"><stop offset="0" stop-color="#8960ff"/><stop offset=".807292" stop-color="#0e1629"/></linearGradient><g fill="url(#a)"><path d="m41.58 43.2491c.5133 0 .8984-.385.8984-.8984v-3.85c0-.5133-.3851-.8983-.8984-.8983h-6.0957c-.5134 0-.8984.385-.8984.8983v3.85c0 .5134.385.8984.8984.8984z"/><path d="m32.2109 27.6555h12.5125v5.6466h-12.5125z"/><path d="m26.2445 53.6433h-6.0957c-.5134 0-.8984.385-.8984.8984v3.85c0 .5133.385.8983.8984.8983h6.0957c.5134 0 .8984-.385.8984-.8983v-3.85c.0641-.5134-.385-.8984-.8984-.8984z"/><path d="m41.58 53.6433h-6.0957c-.5134 0-.8984.385-.8984.8984v3.85c0 .5133.385.8983.8984.8983h6.0957c.5133 0 .8984-.385.8984-.8983v-3.85c0-.5134-.3851-.8984-.8984-.8984z"/><path d="m32.2109 17.71h12.5125v5.6467h-12.5125z"/><path d="m56.8509 53.6433h-6.0957c-.5133 0-.8983.385-.8983.8984v3.85c0 .5133.385.8983.8983.8983h6.0957c.5134 0 .8984-.385.8984-.8983v-3.85c0-.5134-.385-.8984-.8984-.8984z"/><path d="m38.5 0c-21.2388 0-38.5 17.2612-38.5 38.5s17.2612 38.5 38.5 38.5 38.5-17.2612 38.5-38.5-17.2612-38.5-38.5-38.5zm9.9458 30.2867h7.6357c1.155 0 2.1176 1.0908 2.1176 2.31v5.9675c0 1.155-.9625 2.0534-2.1176 2.0534h-8.47l1.7967 1.7966c.2567.2567.2567.6417 0 .8984-.1283.1283-.2567.1925-.4492.1925-.1283 0-.3208-.0642-.4491-.1925l-2.8234-2.7591-.0641-.0642c0-.0642-.0642-.0642-.0642-.1283v-.385c0-.2567.1925-.4492.385-.5775l2.3742-2.3743c.2567-.2566.6417-.2566.8984 0 .2566.2567.2566.6417 0 .8984l-1.4758 1.4757h8.4058c.5133 0 .8983-.385.8983-.8341v-5.9676c0-.5133-.4492-1.0908-.8983-1.0908h-7.7c-.3209 0-.6417-.2567-.6417-.6417 0-.2567.3208-.5774.6417-.5774zm-9.3043 18.8012v1.6683c0 .3208-.2566.6417-.6416.6417s-.6417-.2567-.6417-.6417v-1.6683h-14.0524v1.6683c0 .3208-.2567.6417-.6417.6417-.3208 0-.6417-.2567-.6417-.6417v-2.31c0-.3208.2567-.6417.6417-.6417h14.6945v-1.6683c0-.3208.2567-.6417.6417-.6417s.6417.2567.6417.6417v1.6683h14.6945c.3208 0 .6417.2567.6417.6417v2.31c0 .3208-.2567.6417-.6417.6417-.3208 0-.6417-.2567-.6417-.6417v-1.6683zm-5.8391-6.7376v-3.85c0-1.155.9625-2.1176 2.1176-2.1176h6.0958c1.155 0 2.1175.9625 2.1175 2.1176v3.85c0 1.155-.9625 2.1176-2.1175 2.1176h-6.0958c-1.155 0-2.1176-.9625-2.1176-2.1176zm-2.31-25.2824c0-.3208.2567-.6417.6417-.6417h13.7958c.3208 0 .6416.2567.6416.6417v6.8658c0 .3208-.2566.6416-.6416.6416h-13.7958c-.3208 0-.6417-.2566-.6417-.6416zm0 9.9458c0-.3209.2567-.6417.6417-.6417h13.7958c.3208 0 .6416.2567.6416.6417v6.8657c0 .3208-.2566.6417-.6416.6417h-13.7958c-.3208 0-.6417-.2567-.6417-.6417zm-12.2557-4.5558c0-1.155.9625-2.1176 2.1175-2.1176h7.6358c.3208 0 .6417.2567.6417.6417 0 .3208-.2567.6417-.6417.6417h-7.5717c-.5133 0-.8983.385-.8983.8983v6.8657c0 .5134.385.8984.8983.8984h6.16l-1.54-1.54c-.2566-.2567-.2566-.6417 0-.8984.2567-.2566.6417-.2566.8984 0l2.6309 2.631c.0641.0641.1283.1283.1283.1925 0 .0641.0642.1283.0642.2566 0 .0642 0 .1284-.0642.2567 0 .0642-.0642.1283-.1283.1925l-2.8234 2.8233c-.1283.1284-.2566.1925-.4491.1925-.1284 0-.3209-.0641-.4492-.1925-.2567-.2566-.2567-.6416 0-.8983l1.7967-1.7967h-6.16c-1.155 0-2.1176-.9625-2.1176-2.1176v-6.93zm9.6891 35.9333c0 1.155-.9625 2.1176-2.1176 2.1176h-6.0958c-1.155 0-2.1175-.9625-2.1175-2.1176v-3.85c0-1.155.9625-2.1175 2.1175-2.1175h6.0958c1.155 0 2.1176.9625 2.1176 2.1175zm15.2709 0c0 1.155-.9625 2.1176-2.1176 2.1176h-6.0957c-1.155 0-2.1176-.9625-2.1176-2.1176v-3.85c0-1.155.9625-2.1175 2.1176-2.1175h6.0957c1.155 0 2.1176.9625 2.1176 2.1175zm15.2709 0c0 1.155-.9625 2.1176-2.1175 2.1176h-6.0958c-1.155 0-2.1176-.9625-2.1176-2.1176v-3.85c0-1.155.9625-2.1175 2.1176-2.1175h6.0958c1.155 0 2.1175.9625 2.1175 2.1175z"/></g></svg>