<svg fill="none" height="78" viewBox="0 0 98 78" width="98" xmlns="http://www.w3.org/2000/svg" xmlns:xlink="http://www.w3.org/1999/xlink"><linearGradient id="a" gradientUnits="userSpaceOnUse" x1="49" x2="32.5627" y1=".000001" y2="74.0929"><stop offset="0" stop-color="#8960ff"/><stop offset=".833005" stop-color="#0e1629"/></linearGradient><g fill="url(#a)"><path d="m83.3689 35.4394-6.3704-32.47166c-.1601-1.00055-.739-1.88453-1.5898-2.424282-.8508-.54046252-1.8906-.686203-2.8554-.399444l-23.5541 7.059066-23.554-7.059066c-.9648-.28678-2.0046-.14102255-2.8554.399444-.8508.539672-1.4297 1.423632-1.5898 2.424282l-6.3704 32.47166h-11.12965c-1.25078 0-2.4062.6728-3.0312 1.7648s-.625 2.4376 0 3.5295c.625 1.092 1.78046 1.7648 3.0312 1.7648h91.00015c1.2507 0 2.4061-.6728 3.0311-1.7648.625-1.0919.625-2.4376 0-3.5295s-1.7804-1.7648-3.0311-1.7648zm-60.9004-3.5295 1.4-7.0591h50.26l1.4 7.0591z"/><path d="m80.4985 49.5576h-21c-1.8563 0-3.6369.7437-4.9501 2.0673-1.3125 1.3243-2.05 3.1199-2.05 4.9917h-7c0-1.8719-.7375-3.6675-2.05-4.9917-1.3132-1.3236-3.0938-2.0673-4.95-2.0673h-21c-1.8562 0-3.6368.7437-4.95 2.0673-1.3125 1.3243-2.05 3.1199-2.05 4.9917v14.1181c0 1.872.7375 3.6675 2.05 4.9918 1.3133 1.3236 3.0938 2.0673 4.95 2.0673h21c1.8563 0 3.6368-.7437 4.95-2.0673 1.3125-1.3243 2.05-3.1199 2.05-4.9918v-7.059h7v7.059c0 1.872.7375 3.6675 2.05 4.9918 1.3133 1.3236 3.0939 2.0673 4.9501 2.0673h21c1.8562 0 3.6368-.7437 4.95-2.0673 1.3125-1.3243 2.05-3.1199 2.05-4.9918v-14.1181c0-1.8719-.7375-3.6675-2.05-4.9917-1.3133-1.3236-3.0938-2.0673-4.95-2.0673z"/></g></svg>