<svg fill="none" height="77" viewBox="0 0 140 77" width="140" xmlns="http://www.w3.org/2000/svg" xmlns:xlink="http://www.w3.org/1999/xlink"><linearGradient id="a" gradientUnits="userSpaceOnUse" x1="69.8923" x2="103.647" y1=".000001" y2="94.399"><stop offset="0" stop-color="#8960ff"/><stop offset=".807292" stop-color="#0e1629"/></linearGradient><path d="m139.692 26.4479c-.039-.1982-.109-.3856-.172-.573-.036-.1014-.052-.2065-.097-.3067-.087-.2089-.199-.4023-.316-.5968-.039-.0681-.07-.1432-.112-.2101-.173-.2554-.364-.4941-.58-.7114l-11.002-11.1064c-1.82-1.8382-4.769-1.8382-6.59 0-1.822 1.8381-1.821 4.815 0 6.6541l3.048 3.077-19.799-.0024c-5.8585-13.69394-19.2018-22.6722-34.1977-22.6722-16.1497 0-30.3818 10.4141-35.4146 25.9118-.8015 2.4695.5308 5.1276 2.9755 5.9394.4835.1588.9729.2364 1.4529.2364 1.9589 0 3.783-1.2581 4.4285-3.2405 3.7748-11.6256 14.4497-19.43511 26.5576-19.43511s22.7795 7.80981 26.5576 19.43301c.6289 1.9324 2.4128 3.2395 4.4282 3.2395h23.009l-3.049 3.0746c-1.82 1.8381-1.82 4.8174 0 6.6566.91.919 2.102 1.3786 3.296 1.3786 1.192 0 2.383-.4607 3.292-1.3774l11.006-11.1087c.05-.0501.087-.111.136-.1647.156-.1742.313-.3485.441-.5455.052-.0787.087-.1671.136-.2494.107-.1814.215-.3629.295-.5598.042-.1026.062-.2089.097-.3127.062-.1862.132-.3712.172-.567.059-.3043.094-.6147.094-.931s-.035-.6254-.094-.9298zm-37.345 18.7036c-2.452-.8057-5.0811.5359-5.8828 3.0042-3.7724 11.6244-14.4473 19.4342-26.5552 19.4342s-22.7795-7.8098-26.5576-19.433c-.6289-1.9324-2.4128-3.2395-4.4285-3.2395h-23.0085l3.0487-3.0782c1.8206-1.8357 1.8206-4.815 0-6.6542-1.8205-1.8393-4.7689-1.8381-6.5905 0l-11.006 11.1086c-.21516.2197-.410224.4608-.582818.7186-.076842.1182-.132403.2495-.198605.3736-.079206.1456-.165507.2841-.229342.4369-.066202.1611-.102847.327-.152501.4929-.035466.1289-.086301.2519-.1123065.3867-.0579277.3032-.0910275.6112-.0910275.9203 0 .0036.00354653.0084.00354653.0119 0 .3068.03073657.6088.08984767.9084.0307358.142.0792048.2733.1182148.4106.046104.1552.082753.3151.145408.4655.066202.1647.159593.3115.242346.4643.062655.1146.112306.2375.184422.3473.172596.2578.367645.5013.582815.7209l11.0024 11.1087c.9102.919 2.1019 1.3786 3.2924 1.3786 1.1951 0 2.3868-.4608 3.296-1.3786 1.8205-1.8358 1.8205-4.8151 0-6.6542l-3.0488-3.0782h19.8015c5.8588 13.694 19.202 22.6722 34.198 22.6722 16.1496 0 30.3819-10.4141 35.4149-25.9118.804-2.4683-.526-5.1276-2.975-5.937z" fill="url(#a)"/></svg>