<svg fill="none" height="77" viewBox="0 0 77 77" width="77" xmlns="http://www.w3.org/2000/svg" xmlns:xlink="http://www.w3.org/1999/xlink"><linearGradient id="a" gradientUnits="userSpaceOnUse" x1="38.5" x2="87.1237" y1=".000062" y2="74.9055"><stop offset="0" stop-color="#8960ff"/><stop offset=".807292" stop-color="#0e1629"/></linearGradient><g fill="url(#a)"><path d="m58.7125 55.5844.2406-.8421-.782.1804c-.4211.1203-.8422 0-1.143-.3008l-.5414-.5414-.1804.6618c-.1203.4211-.4211.782-.9024.9023l-.6617.1805.5414.5414c.3008.3008.4211.7218.3008 1.1429l-.2406.8422.782-.1804c.4211-.1203.8422 0 1.143.3007l.5414.5414.1804-.6617c.1204-.4211.4211-.782.9024-.9023l.6617-.1805-.5414-.5414c-.2406-.3008-.3609-.7219-.3008-1.143z"/><path d="m40.6051 61.9603h-.7218c-.4211 0-.8422-.2406-1.0227-.6016l-.3609-.6015-.361.6015c-.2406.361-.6015.6016-1.0226.6016h-.7219l.3609.6016c.2407.3609.2407.8422 0 1.2031l-.3609.6016h.7219c.4211 0 .8421.2406 1.0226.6015l.361.6016.3609-.6016c.2406-.3609.6016-.6015 1.0227-.6015h.7218l-.3609-.6016c-.2406-.3609-.2406-.8422 0-1.2031z"/><path d="m20.7543 54.8021-.1805-.6618-.5414.5414c-.3008.3008-.7219.4211-1.143.3008l-.8422-.2406.1805.782c.1203.4211 0 .8422-.3008 1.143l-.5414.5414.6617.1805c.4211.1203.7821.4211.9024.9023l.1804.6617.5414-.5414c.3008-.3008.7219-.4211 1.143-.3008l.8422.2407-.1805-.7821c-.1203-.4211 0-.8421.3008-1.1429l.5414-.5414-.6617-.1805c-.4813-.1805-.782-.4813-.9023-.9023z"/><path d="m18.2875 22.0166-.2406.8421.782-.1804c.4211-.1203.8422 0 1.143.3008l.5414.5414.1804-.6618c.1203-.421.4211-.782.9024-.9023l.6617-.1805-.5414-.5414c-.3008-.3008-.4211-.7219-.3008-1.1429l.2406-.8422-.782.1804c-.4211.1203-.8422 0-1.143-.3007l-.5414-.5414-.1804.6617c-.1204.4211-.4211.782-.9024.9023l-.6617.1805.5414.5414c.2406.3008.3609.7219.3008 1.143z"/><path d="m56.2457 22.7989.1805.6617.5414-.5414c.3008-.3007.7219-.4211 1.143-.3007l.8422.2406-.1805-.782c-.1203-.4211 0-.8422.3008-1.143l.5414-.5414-.6617-.1805c-.4211-.1203-.7821-.4211-.9024-.9023l-.1804-.6618-.5414.5415c-.3008.3007-.7219.4211-1.143.3007l-.8422-.2406.1805.782c.1203.4211 0 .8422-.3008 1.143l-.5414.5414.6617.1805c.4812.1805.782.4812.9023.9023z"/><path d="m15.3395 39.7032-.3609-.6016c-.2407-.3609-.2407-.8422 0-1.2031l.3609-.6016h-.7219c-.4211 0-.8422-.2406-1.0226-.6015l-.361-.6016-.3609.6016c-.2406.3609-.6016.6015-1.0227.6015h-.7218l.3609.6016c.2406.3609.2406.8422 0 1.2031l-.3609.6016h.7218c.4211 0 .8422.2406 1.0227.6015l.3609.6016.361-.6016c.2406-.3609.6015-.6015 1.0226-.6015z"/><path d="m36.3949 14.4376h.7218c.4211 0 .8422.2406 1.0227.6015l.3609.6016.361-.6016c.2406-.3609.6015-.6015 1.0226-.6015h.7219l-.3609-.6016c-.2407-.3609-.2407-.8422 0-1.2031l.3609-.6016h-.7219c-.4211 0-.8422-.2406-1.0226-.6016l-.361-.6015-.3609.6015c-.2406.361-.6016.6016-1.0227.6016h-.7218l.3609.6016c.2406.3609.2406.8422 0 1.2031z"/><path d="m38.5.00006104c-21.2355 0-38.5 17.26453896-38.5 38.50003896s17.2645 38.5 38.5 38.5 38.5-17.2645 38.5-38.5-17.2645-38.50003896-38.5-38.50003896zm12.9938 21.59573896 1.564-1.5641-.5414-2.1054c-.1805-.6617.2406-1.3234.9024-1.4437.1804-.0602.421-.0602.6015 0l2.1054.5414 1.5641-1.5641c.4812-.4812 1.2031-.4812 1.6844 0 .1804.1805.2406.361.3007.5414l.5414 2.0454 2.0454.5414c.6617.1804 1.0226.8422.9023 1.4437-.0602.2406-.1805.4211-.3008.5414l-1.564 1.5641.5414 2.1054c.1804.6617-.2407 1.3234-.9024 1.4437-.1805.0602-.4211.0602-.6015 0l-2.1054-.5414-1.5641 1.5641c-.2406.2406-.5414.3609-.8422.3609-.5414 0-1.0227-.3609-1.143-.9023l-.5414-2.0453-2.0453-.5414c-.6617-.1805-1.0226-.8422-.9023-1.4438 0-.2406.1203-.4211.3008-.5414zm11.4897 8.6023c-.8422.1805-1.564.6617-2.1054 1.3234-.3609-1.2633-.9023-2.4062-1.4437-3.6094l.3008.0602c.782.1805 1.6241.1203 2.346-.1805.3008.7821.6015 1.5641.9023 2.4063zm-12.3321-14.498c-.4812.7219-.6617 1.6241-.5414 2.4665-1.2633-.7219-2.5265-1.3235-3.9102-1.8047.1805-.8422.0601-1.7446-.4211-2.5266l-.0602-.1805c1.7446.5414 3.3689 1.2031 4.9329 2.0453zm-17.3855-4.271c-.3609-.6016-.1203-1.3235.4211-1.62419.1805-.12031.4211-.18047.6016-.18047h2.1054l1.0828-1.80469c.3609-.60156 1.0828-.78203 1.6241-.42109.1805.12031.3008.24063.4211.42109l1.0829 1.80469h2.1054c.6617 0 1.2031.54136 1.2031 1.20316 0 .2406-.0602.4211-.1805.6015l-1.0226 1.8047 1.0226 1.8047c.3609.6016.1203 1.3234-.4211 1.6242-.1805.1203-.4211.1804-.6015.1804h-2.1054l-1.0829 1.8047c-.3609.6016-1.0828.782-1.6241.4211-.1805-.1203-.3008-.2406-.4211-.4211l-1.0828-1.8047h-2.1054c-.6617 0-1.2031-.5414-1.2031-1.2031 0-.2406.0601-.4211.1804-.6016l1.0227-1.8047zm-1.9852 2.2258-.1203.1805c-.4211.782-.6016 1.6844-.4211 2.5265-1.3835.4813-2.6469 1.0829-3.9102 1.8047.1203-.8422-.0602-1.7446-.5414-2.4664 1.6241-.8422 3.2484-1.504 4.9929-2.0454zm-17.3855 5.7148c.1203-.4211.4211-.7219.8422-.8422l2.0453-.5414.5414-2.0453c.1805-.6617.8422-1.0227 1.4438-.9024.2406.0602.421.1805.5414.3008l1.564 1.5641 2.1054-.5414c.6617-.1805 1.3235.2406 1.4438.9023.0601.1805.0601.4211 0 .6016l-.5414 2.1054 1.564 1.564c.4813.4813.4813 1.2032 0 1.6844-.1804.1805-.3609.2406-.5414.3008l-2.0453.5414-.5414 2.0453c-.1203.4211-.4211.7219-.8422.8422s-.8422 0-1.1429-.3008l-1.5641-1.564-2.1054.5414c-.6617.1804-1.3234-.2407-1.4438-.9024-.0601-.1804-.0601-.4211 0-.6015l.5414-2.1054-1.564-1.5641c-.3008-.2406-.4211-.6617-.3008-1.0828zm3.6696 8.5422c-.6016 1.1429-1.0828 2.346-1.4437 3.6093-.5415-.6617-1.2633-1.1429-2.1054-1.3234.3007-.782.6015-1.6241.9625-2.4062.7218.3007 1.564.4211 2.346.1804zm-5.354 16.0022-1.0828-1.8047h-2.10539c-.66172 0-1.20312-.5414-1.20312-1.2031 0-.2406.06015-.4211.18047-.6016l1.02265-1.8046-1.02265-1.8047c-.36094-.6016-.12032-1.3235.42109-1.6242.18047-.1203.42109-.1804.60156-.1804h2.10539l1.0828-1.8047c.361-.6016 1.0828-.7821 1.6242-.4211.1804.1203.3008.2406.4211.4211l1.0828 1.8047h2.1054c.6617 0 1.2031.5414 1.2031 1.2031 0 .2406-.0602.4211-.1805.6015l-1.0226 1.8047 1.0226 1.8047c.361.6016.1203 1.3235-.4211 1.6242-.1804.1203-.421.1804-.6015.1804h-2.1054l-1.0828 1.8047c-.361.6016-1.0828.7821-1.6242.4211-.1805-.0601-.3609-.2406-.4211-.4211zm5.7148 5.8352-.6617-.1804c-.7219-.1805-1.4438-.1203-2.1054.1203-.4813-.9625-.8422-1.925-1.2031-2.8875.8421-.1805 1.564-.6617 2.1054-1.3234.5414 1.5039 1.143 2.9477 1.8648 4.271zm7.5797 6.2563-1.5641 1.5641.5414 2.1054c.1805.6617-.2406 1.3234-.9023 1.4437-.1805.0602-.4211.0602-.6016 0l-2.1054-.5414-1.564 1.5641c-.3008.3008-.7821.4211-1.143.3007-.4211-.1203-.7219-.421-.8422-.8421l-.5414-2.0454-2.0453-.5414c-.6617-.1804-1.0227-.8421-.9024-1.4437.0602-.2406.1805-.4211.3008-.5414l1.5641-1.5641-.5414-2.1054c-.1805-.6617.2406-1.3234.9023-1.4437.1805-.0602.4211-.0602.6016 0l2.1054.5414 1.5641-1.5641c.4812-.4812 1.2031-.4812 1.6843 0 .1805.1805.2406.361.3008.5414l.5414 2.0453 2.0453.5414c.6617.1805 1.0227.8422.9024 1.4438 0 .2406-.1203.4211-.3008.5414zm5.8953 7.3391c-1.6844-.4813-3.2484-1.143-4.8125-1.925.3008-.7219.4211-1.5641.1805-2.3461l-.0602-.3609c1.2633.7219 2.5867 1.3835 3.9703 1.8648 0 .6617.1203 1.3835.4813 1.9852l.3609.6016zm12.3321 1.6241c.3609.6016.1203 1.3235-.4211 1.6242-.1805.1203-.4211.1804-.6016.1804h-2.1054l-1.0828 1.8047c-.3609.6016-1.0828.7821-1.6241.4211-.1805-.1203-.3008-.2406-.4211-.4211l-1.0828-1.8047h-2.1054c-.6617 0-1.2032-.5414-1.2032-1.2031 0-.2406.0602-.4211.1805-.6015l1.0227-1.8047-1.0227-1.8047c-.3609-.6016-.1203-1.3235.4211-1.6242.1805-.1203.4211-.1805.6016-.1805h2.1054l1.0828-1.8046c.3609-.6016 1.0828-.7821 1.6241-.4211.1805.1203.3008.2406.4211.4211l1.0828 1.8046h2.1054c.6618 0 1.2032.5415 1.2032 1.2032 0 .2406-.0602.4211-.1805.6015l-1.0227 1.8047zm1.8648-1.6241-.1203-.1805.3609-.6016c.3609-.6015.5414-1.2632.4813-1.9852 1.3835-.4812 2.7071-1.0828 3.9703-1.8648l-.0602.361c-.1805.782-.1203 1.6241.1805 2.346-1.504.8422-3.1281 1.4438-4.8125 1.9251zm17.5051-5.1134c-.1203.4211-.4211.7219-.8422.8422l-2.0453.5414-.5414 2.0453c-.1203.4211-.4211.7219-.8422.8422s-.8422 0-1.143-.3008l-1.564-1.564-2.1054.5414c-.6617.1804-1.3235-.2407-1.4438-.9024-.0601-.1804-.0601-.4211 0-.6015l.5414-2.1054-1.564-1.5641c-.4813-.4813-.4813-1.2031 0-1.6844.1804-.1804.3609-.2406.5414-.3008l2.0453-.5414.5414-2.0453c.1805-.6617.8422-1.0226 1.4437-.9023.2407.0601.4211.1804.5415.3008l1.564 1.564 2.1054-.5414c.6617-.1805 1.3235.2406 1.4438.9024.0601.1804.0601.4211 0 .6015l-.5414 2.1054 1.564 1.5641c.3008.3609.4211.782.3008 1.2031zm-4.0304-8.4821c.7219-1.3835 1.3835-2.8273 1.8047-4.271.5414.6617 1.2633 1.143 2.1054 1.3234-.361.9625-.7219 1.925-1.2031 2.8875-.6618-.2406-1.3836-.3008-2.1054-.1203zm8.9031-14.8582c.6617 0 1.2032.5414 1.2032 1.2031 0 .2406-.0602.4211-.1805.6016l-1.0227 1.8046 1.0227 1.8047c.3609.6016.1203 1.3235-.4211 1.6242-.1805.1203-.4211.1804-.6016.1804h-2.1054l-1.0828 1.8047c-.3609.6016-1.0828.7821-1.6241.4211-.1805-.1203-.3008-.2406-.4211-.4211l-1.0828-1.8047h-2.1054c-.6618 0-1.2032-.5414-1.2032-1.2031 0-.2406.0602-.4211.1805-.6015l1.0227-1.8047-1.0227-1.8047c-.3609-.6016-.1203-1.3235.4211-1.6242.1805-.1203.4211-.1804.6016-.1804h2.1054l1.0828-1.8047c.3609-.6016 1.0828-.7821 1.6241-.4211.1805.1203.3008.2406.4211.4211l1.0828 1.8047z"/><path d="m64.1273 36.6961-.361-.6016-.3609.6016c-.2406.3609-.6016.6015-1.0227.6015h-.7219l.361.6016c.2406.3609.2406.8422 0 1.2031l-.361.6016h.7219c.4211 0 .8422.2406 1.0227.6015l.3609.6016.361-.6016c.2406-.3609.6015-.6015 1.0226-.6015h.7219l-.361-.6016c-.2406-.3609-.2406-.8422 0-1.2031l.361-.6016h-.7219c-.4211 0-.782-.2406-1.0226-.6015z"/></g></svg>