<svg fill="none" height="77" viewBox="0 0 68 77" width="68" xmlns="http://www.w3.org/2000/svg" xmlns:xlink="http://www.w3.org/1999/xlink"><linearGradient id="a" gradientUnits="userSpaceOnUse" x1="33.5564" x2="84.5602" y1=".000001" y2="68.4829"><stop offset="0" stop-color="#8960ff"/><stop offset=".697917" stop-color="#0e1629"/></linearGradient><g fill="url(#a)"><path d="m33.5528 21.5911h3.1398v-2.0891h-2.0932v-1.0446h-2.0932v1.2379c-1.2162.4325-2.0932 1.5804-2.0932 2.9404 0 1.7278 1.4088 3.1338 3.1398 3.1338.5766 0 1.0466.4679 1.0466 1.0445s-.47 1.0446-1.0466 1.0446h-3.1398v2.0891l2.126.0328-.0328 1.0118h2.0932v-1.2378c1.2162-.4325 2.0932-1.5804 2.0932-2.9405 0-1.7277-1.4087-3.1337-3.1398-3.1337-.5765 0-1.0466-.468-1.0466-1.0446s.47-1.0446 1.0466-1.0446z"/><path clip-rule="evenodd" d="m19.6219 46.1188v-7.8395h27.8708v7.8395c5.0845 0 6.6927 5.2229 7.4865 10.2365.9151 5.7863 1.6624 7.0207 5.5838 9.2808 3.9208 2.2601 6.5498 2.9419 6.5498 6.5397v4.8236h-19.6207v-5.4529h-7.496v-7.4842l-3.9226-6.3237v-10.0878h-5.0342v10.0889l-3.9225 6.3232v7.4842h-7.4961v5.4529h-19.6207v-4.8237c0-3.5977 2.63017-4.2795 6.55215-6.5396 3.92085-2.2601 4.66655-3.4945 5.58385-9.2808.792-5.0136 2.4008-10.2366 7.4853-10.2366zm13.0962 20.8788v-17.6726h1.6788v17.6726zm.84-49.8952c4.1863 0 7.5819 3.3895 7.5819 7.5688 0 4.1792-3.3954 7.5688-7.5819 7.5688-4.1863 0-7.5819-3.3896-7.5819-7.5688 0-4.1793 3.3954-7.5688 7.5819-7.5688zm-13.9363 19.5016v-19.275c0-4.8648 9.0625-14.51975 13.9363-17.329 4.8721 2.80939 13.9351 12.4652 13.9351 17.329v19.275zm9.1737 37.9118v-9.9884l2.2448-3.6197v7.7656h5.0342v-7.7644l2.2448 3.6185v9.9884z" fill-rule="evenodd"/></g></svg>