<svg fill="none" height="28" viewBox="0 0 28 28" width="28" xmlns="http://www.w3.org/2000/svg"><path d="m5.72913 26.6859c-1.21408 1.3512-3.49062 1.3512-4.7047 0-1.365908-1.3513-1.365908-3.4531 0-4.8042l7.8915-7.9566-7.8915-7.80672c-1.365908-1.35124-1.365908-3.45312 0-4.80415 1.21408-1.3512408 3.49062-1.3512408 4.7047 0l8.04307 7.95662 8.347-8.25742c1.366-1.351239 3.4907-1.351239 4.8564 0 1.3659 1.20104 1.3659 3.45311 0 4.65415l-8.3471 8.25742 8.3471 8.2574c1.3659 1.3513 1.3659 3.4531 0 4.8042-1.3659 1.3512-3.4907 1.3512-4.8564 0l-8.347-8.2574z" fill="#d9ccff"/></svg>