<svg fill="none" height="34" viewBox="0 0 34 34" width="34" xmlns="http://www.w3.org/2000/svg"><path d="m33.0034 8.03543h-4.8231c.0703-.15418.1342-.30704.1888-.4569.6897-1.89489.316-4.01382-.9801-5.55867-1.296-1.544847-3.3181-2.280826-5.3039-1.9305262-1.9862.3500012-3.6343 1.7333362-4.3239 3.6282262-.4513 1.39234-.5705 2.87129-.349 4.31784h-.8676c.2218-1.44664.1023-2.92516-.3486-4.31784-.5116-1.40767-1.5612-2.55456-2.9182-3.187986-1.3571-.633395-2.9103-.701332-4.31763-.189157-1.40769.512176-2.55357 1.562833-3.18597 2.920213-.63273 1.35772-.69967 2.91092-.18649 4.31784.05462.15018.11855.30271.18882.45689h-4.7801c-.550142 0-.99608899.44625-.99643.99609v5.31255c.000333.5501.446245.9961.99643.9961h1.06233v17.6642-.0004c0 .5502.44591.9961.99609.9961h27.89035c.5501 0 .996-.4459.996-.9961v-17.6633h1.0624c.5501 0 .9961-.4459.9964-.9961v-5.31253c-.0003-.54981-.4462-.99609-.9964-.99609zm-13.3702-3.6365c.3314-.91015 1.0107-1.65175 1.8885-2.06105.8779-.40927 1.8826-.45323 2.7927-.12188.9102.33135 1.6515 1.01066 2.0611 1.8885.4093.87784.4532 1.88219.1219 2.79268-.1529.40094-.3514.78291-.5918 1.13828h-6.4765c-.2255-1.21083-.1552-2.45832.2041-3.6365zm-12.17315 2.49831c-.33235-.91049-.28906-1.91553.12022-2.79396.40928-.87852 1.15091-1.55815 2.06175-1.88986.91048-.33135 1.91548-.2874 2.79368.12255.8782.40994 1.5576 1.15226 1.8882 2.063.3597 1.17818.4296 2.42567.2041 3.6365h-6.4765.00034c-.24044-.35532-.43925-.73729-.59177-1.13828zm8.54395 8.44286v7.3377h-11.95319v-7.3377zm-11.95319 9.33h11.95319v7.3376h-11.95319zm13.94469 7.3376v-7.3376h11.9533v7.3376zm11.9533-9.3299h-11.9533v-7.3377h11.9533zm2.0586-9.33h-30.01475v-3.3201h30.01475z" fill="#8960ff"/></svg>