<svg fill="none" height="34" viewBox="0 0 34 34" width="34" xmlns="http://www.w3.org/2000/svg"><g fill="#8960ff"><path d="m7.89286 14.571c-4.50023 0-7.89286 2.0883-7.89286 4.8575v9.7144c0 2.7689 3.39263 4.8571 7.89286 4.8571 4.50024 0 7.89284-2.0882 7.89284-4.8571v-9.7144c0-2.7692-3.3926-4.8575-7.89284-4.8575zm5.46444 14.5716c0 .9902-2.1286 2.4288-5.46444 2.4288-3.33553 0-5.46443-1.4385-5.46443-2.4288v-1.2956c1.39787.8091 3.30054 1.2956 5.46443 1.2956 2.16384 0 4.06654-.4864 5.46444-1.2956zm0-4.8571c0 .9902-2.1286 2.4288-5.46444 2.4288-3.33553-.0003-5.46443-1.4388-5.46443-2.4288v-1.2957c1.39787.8092 3.30054 1.2957 5.46443 1.2957 2.16384 0 4.06654-.4865 5.46444-1.2957zm-5.46444-2.4287c-3.33553 0-5.46443-1.4385-5.46443-2.4285 0-.9901 2.12854-2.4287 5.46443-2.4287 3.33554 0 5.46444 1.4385 5.46444 2.4287 0 .9899-2.1288 2.4285-5.46444 2.4285z"/><path d="m26.1072 14.571c-4.5003 0-7.8929 2.0883-7.8929 4.8575v9.7144c0 2.7689 3.3926 4.8571 7.8929 4.8571 4.5002 0 7.8928-2.0882 7.8928-4.8571v-9.7144c0-2.7692-3.3926-4.8575-7.8928-4.8575zm5.4644 14.5716c0 .9902-2.1286 2.4288-5.4644 2.4288-3.3356 0-5.4645-1.4385-5.4645-2.4288v-1.2956c1.3979.8091 3.3006 1.2956 5.4645 1.2956 2.1638 0 4.0665-.4864 5.4644-1.2956zm0-4.8571c0 .9902-2.1286 2.4288-5.4644 2.4288-3.3356-.0003-5.4645-1.4388-5.4645-2.4288v-1.2957c1.3979.8092 3.3006 1.2957 5.4645 1.2957 2.1638 0 4.0665-.4865 5.4644-1.2957zm-5.4644-2.4287c-3.3356 0-5.4645-1.4385-5.4645-2.4285 0-.9901 2.1286-2.4287 5.4645-2.4287 3.3355 0 5.4644 1.4385 5.4644 2.4287 0 .9899-2.1288 2.4285-5.4644 2.4285z"/><path d="m22.7158 8.14391-4.856 4.85659c-.4884.4898-1.2609.4599-1.7188 0l-4.8565-4.85659c-.4744-.47433-.4744-1.24256 0-1.71693.4743-.47437 1.2425-.47434 1.7169 0l2.7844 2.78443v-7.99704c0-.670558.5432-1.21437 1.2143-1.21437.6712 0 1.2144.543508 1.2144 1.21437v7.99704l2.7844-2.78443c.4743-.47434 1.2426-.47434 1.7169 0 .4744.47433.4743 1.24256 0 1.71693z"/></g></svg>