<svg fill="none" height="34" viewBox="0 0 34 34" width="34" xmlns="http://www.w3.org/2000/svg"><path d="m33.0036 6.97433h-3.0545v-5.66661c0-.722255-.4459-1.30772-.9961-1.30772h-25.30051c-.96838.00131164-1.89688.507152-2.58154 1.40599-.684669.89884-1.06967121 2.11783-1.07095 3.38873v19.17938c.00233116 2.6582.807909 5.2067 2.2396 7.0861 1.43168 1.8794 3.37252 2.9367 5.39728 2.9398h25.36702c.5501 0 .9961-.5854.9961-1.3077v-24.41069c0-.72226-.4459-1.30772-.9961-1.30817zm-29.35094-4.35888h24.30474v4.35888l-24.30474.00044c-.5931 0-1.14128-.41578-1.43796-1.08995-.29639-.67416-.29639-1.50527 0-2.1795.29672-.6746.84488-1.08995 1.43796-1.08995zm3.98422 28.77015c-1.49662-.0022-2.93126-.7839-3.98925-2.1729-1.05833-1.3895-1.65348-3.2729-1.6551-5.2378v-14.91049c.51352.34627 1.08263.52682 1.66013.52639h28.35514v6.1024h-4.3163c-1.3048 0-2.5106.9138-3.163 2.3977-.6524 1.4834-.6524 3.3114 0 4.7948.6524 1.4835 1.8582 2.3972 3.163 2.3972h4.3163v6.1029zm24.37042-13.0773v4.3589h-4.3163c-.5931 0-1.1413-.4153-1.4376-1.0895-.2967-.6746-.2967-1.5053 0-2.1795.2964-.6746.8445-1.0899 1.4376-1.0899z" fill="#8960ff"/></svg>