<svg fill="none" height="215" viewBox="0 0 226 215" width="226" xmlns="http://www.w3.org/2000/svg" xmlns:xlink="http://www.w3.org/1999/xlink"><linearGradient id="a" gradientUnits="userSpaceOnUse" x1="179.562" x2="12.9534" y1="214.447" y2="-90.3318"><stop offset="0" stop-color="#8960ff"/><stop offset=".755208" stop-color="#182343"/></linearGradient><linearGradient id="b" gradientUnits="userSpaceOnUse" x1="179.562" x2="12.9534" y1="214.447" y2="-90.3318"><stop offset="0" stop-color="#8960ff"/><stop offset=".6875" stop-color="#182343"/></linearGradient><linearGradient id="c" gradientUnits="userSpaceOnUse" x1="48.4447" x2="189.873" y1="11.7634" y2="154.066"><stop offset="0" stop-color="#8960ff"/><stop offset=".677083" stop-color="#182343"/></linearGradient><path d="m222.562 112.776c11.543 43.078-14.021 87.357-57.099 98.899-43.078 11.543-87.3571-14.021-98.8999-57.099-11.5427-43.078 14.0217-87.3573 57.0999-98.9 43.078-11.5427 87.357 14.0217 98.899 57.1z" fill="url(#a)" fill-opacity=".7"/><path d="m135.407 170.939c-19.969 34.587-64.1952 46.438-98.7821 26.469-34.58704-19.969-46.43741-64.195-26.4686-98.7823 19.9688-34.587 64.195-46.4373 98.7817-26.4685 34.587 19.9688 46.438 64.1948 26.469 98.7818z" fill="url(#b)"/><path d="m40.0267 78.8673c-8.9537-33.4156 10.8767-67.7627 44.2923-76.71641 33.416-8.9537 67.763 10.87661 76.716 44.29231 8.954 33.4156-10.876 67.7628-44.292 76.7168-33.4154 8.953-67.7626-10.877-76.7163-44.2927z" fill="url(#c)"/></svg>